<svg xmlns="http://www.w3.org/2000/svg" viewBox="-128 -64 720 640" fill="#ffffff"><path d="M569.3 231.6C513 135.9 407.8 72 288 72c-28.5 0-56.1 3.6-82.5 10.4l-52.7-72.2c-7.6-10.9-22.6-13.5-33.4-5.9l-13.1 9.2c-10.9 7.6-13.5 22.6-5.9 33.4l43.1 58.4C89.4 131.7 40.2 174.7 6.7 231.6v.1c-8.8 14.9-9 33.5 0 48.7 38.5 65.3 99.7 115.9 172.9 141.3L55.3 244.3a272.2 272.2 0 0 1 28.3-35.9L203 379l40.6 58a330.1 330.1 0 0 0 78.9 1.2l-190-271.4a277.6 277.6 0 0 1 38.8-21.6l251.8 356.5c7.6 10.9 22.6 13.5 33.4 5.9l13.1-9.2c10.9-7.6 13.5-22.6 5.9-33.4l-43.1-58.4c57.2-28 104.8-72 136.8-126.3a47.9 47.9 0 0 0 0-48.7zM390 345.9l-19.1-27.2c24.7-32.6 27.7-76.4 8.8-111.7 0 23.7-19.2 42.8-42.8 42.8-23.8 0-42.8-19.3-42.8-42.8 0-23.7 19.2-42.8 42.8-42.8-24.8-13.2-53.5-15.6-79.5-7.7l-19.1-27.2c15.5-6 32.2-9.3 49.7-9.3 75.2 0 136 60.8 136 136 0 34.5-12.8 66-34 89.9z"/></svg>